<?xml version="1.0" encoding="utf-8"?>
<!-- Generator: Adobe Illustrator 25.2.1, SVG Export Plug-In . SVG Version: 6.00 Build 0)  -->
<svg version="1.1" id="Layer_1" xmlns="http://www.w3.org/2000/svg" xmlns:xlink="http://www.w3.org/1999/xlink" x="0px" y="0px"
	 viewBox="0 0 1920 1080" style="enable-background:new 0 0 1920 1080;" xml:space="preserve">
<style type="text/css">
	.st0{fill:#fff;}
	.st1{fill:none;stroke:#3FA9F5;stroke-width:10;stroke-miterlimit:10;}
	.st2{fill:#878787;}
</style>
<g>
	<path class="st0" d="M1594.3,692.6c0,11.05,8.95,20,20,20h179.11c11.05,0,20-8.95,20-20V318.05c0-11.05-8.95-20-20-20H1614.3
		c-11.05,0-20,8.95-20,20V692.6z"/>
	<path class="st1" d="M1594.3,692.6c0,11.05,8.95,20,20,20h179.11c11.05,0,20-8.95,20-20V318.05c0-11.05-8.95-20-20-20H1614.3
		c-11.05,0-20,8.95-20,20V692.6z"/>
</g>
<g>
	<path d="M1652.07,695.78c0,1.37,1.11,2.48,2.48,2.48h97.86c1.37,0,2.48-1.11,2.48-2.48s-1.11-2.48-2.48-2.48h-97.86
		C1653.18,693.29,1652.07,694.41,1652.07,695.78C1652.07,695.78,1652.07,694.41,1652.07,695.78z"/>
</g>
<g>
	<path d="M332.63,520.32c-10.12,5.77-20.77,9.46-31.97,11.09c-11.2,1.63-22.46,1.13-33.8-1.51c-11.34-2.63-21.82-7.54-31.44-14.71
		l-96.84-72.21c-8.12-6.06-12.9-14.03-14.35-23.92c-1.44-9.88,0.87-18.89,6.92-27.02c6.06-8.12,14.03-12.9,23.92-14.35
		c9.89-1.44,18.9,0.87,27.02,6.93l96.84,72.21c3.42,2.55,7.18,3.53,11.29,2.93c4.11-0.59,7.43-2.61,9.98-6.03l93.25-125.06
		c6.06-8.12,14.03-12.9,23.92-14.35c9.89-1.44,18.9,0.87,27.02,6.92c8.13,6.06,12.91,14.04,14.35,23.92
		c1.44,9.89-0.87,18.9-6.93,27.02l-93.25,125.06C351.39,506.87,342.74,514.57,332.63,520.32z"/>
</g>
<g>
	<path class="st2" d="M318.11,559.68c10.12-5.77,20.77-9.46,31.97-11.09c11.2-1.63,22.46-1.13,33.8,1.51
		c11.34,2.63,21.82,7.54,31.44,14.71l96.84,72.21c8.12,6.06,12.91,14.03,14.35,23.92c1.44,9.88-0.86,18.89-6.92,27.02
		c-6.06,8.12-14.03,12.9-23.92,14.35c-9.89,1.44-18.9-0.87-27.02-6.92l-96.84-72.21c-3.42-2.55-7.18-3.53-11.29-2.93
		c-4.11,0.59-7.43,2.61-9.98,6.03l-93.25,125.06c-6.06,8.12-14.03,12.9-23.92,14.35c-9.89,1.44-18.9-0.87-27.02-6.92
		c-8.13-6.06-12.91-14.04-14.35-23.92c-1.44-9.89,0.87-18.9,6.93-27.02l93.25-125.06C299.34,573.13,307.99,565.43,318.11,559.68z"/>
</g>
<g>
	<path d="M606.91,373.61h76.3c8.87,0,16.33,3.09,22.4,9.27c6.06,6.19,9.1,13.71,9.1,22.58c0,8.87-3.04,16.4-9.1,22.58
		c-6.07,6.19-13.54,9.28-22.4,9.28h-76.3c-7.94,0-15.46,1.57-22.58,4.72c-7.12,3.15-13.36,7.47-18.72,12.95
		c-5.37,5.49-9.57,11.79-12.6,18.9c-3.04,7.12-4.55,14.76-4.55,22.93c0,7.93,1.52,15.46,4.55,22.57c3.03,7.12,7.23,13.36,12.6,18.73
		c5.36,5.37,11.6,9.57,18.72,12.6c7.12,3.04,14.64,4.55,22.58,4.55h76.3c8.87,0,16.33,3.1,22.4,9.28c6.06,6.19,9.1,13.71,9.1,22.58
		c0,8.87-3.04,16.4-9.1,22.58c-6.07,6.18-13.54,9.27-22.4,9.27h-76.3c-16.8,0-32.61-3.2-47.42-9.62
		c-14.82-6.42-27.77-15.17-38.85-26.25c-11.09-11.08-19.84-24.09-26.25-39.02c-6.42-14.93-9.62-30.92-9.62-47.95
		c0-17.26,3.26-33.3,9.8-48.12c6.53-14.82,15.34-27.76,26.43-38.85c11.08-11.08,24.03-19.77,38.85-26.07
		C574.65,376.76,590.34,373.61,606.91,373.61z"/>
	<path d="M782.95,373.61c8.86,0,16.39,3.09,22.57,9.27c6.18,6.19,9.28,13.71,9.28,22.58v181.3c0,8.87-3.1,16.4-9.28,22.58
		c-6.18,6.19-13.71,9.28-22.57,9.28c-8.87,0-16.4-3.09-22.58-9.28c-6.19-6.18-9.28-13.7-9.28-22.58v-181.3
		c0-8.86,3.09-16.39,9.28-22.58C766.56,376.7,774.08,373.61,782.95,373.61z M838.6,496.11c0-8.87,3.09-16.39,9.28-22.58
		c6.18-6.18,13.7-9.28,22.58-9.28h47.95v-58.8c0-8.86,3.09-16.39,9.28-22.58c6.18-6.18,13.71-9.27,22.58-9.27
		c8.86,0,16.39,3.09,22.58,9.27c6.18,6.19,9.27,13.71,9.27,22.58v181.3c0,8.87-3.09,16.4-9.27,22.58
		c-6.19,6.19-13.71,9.28-22.58,9.28c-8.87,0-16.4-3.09-22.58-9.28c-6.19-6.18-9.28-13.7-9.28-22.58v-58.8h-47.95
		c-8.87,0-16.4-3.09-22.58-9.27C841.69,512.5,838.6,504.98,838.6,496.11z"/>
	<path d="M1025.5,541.26v-90.65c0-10.73,2.04-20.76,6.12-30.1c4.08-9.33,9.62-17.5,16.62-24.5s15.17-12.54,24.5-16.62
		c9.33-4.08,19.37-6.12,30.1-6.12h73.85c10.73,0,20.83,2.05,30.28,6.12c9.45,4.09,17.67,9.62,24.67,16.62s12.54,15.17,16.62,24.5
		c4.08,9.34,6.12,19.37,6.12,30.1v5.95c0,10.73-2.04,20.77-6.12,30.1c-4.08,9.33-9.62,17.5-16.62,24.5c-7,7-15.22,12.54-24.67,16.62
		c-9.45,4.08-19.55,6.12-30.28,6.12h-86.1c-0.94,0-1.4,0.47-1.4,1.4v5.95c0,3.97,1.28,7.24,3.85,9.8c2.56,2.57,5.83,3.85,9.8,3.85
		h119c4.43,0,8.58,0.82,12.42,2.45c3.85,1.63,7.23,3.91,10.15,6.83c2.91,2.92,5.19,6.36,6.82,10.32c1.63,3.97,2.45,8.17,2.45,12.6
		c0,8.87-3.15,16.33-9.45,22.4c-6.3,6.07-13.88,9.1-22.75,9.1h-118.65c-10.74,0-20.77-2.04-30.1-6.12
		c-9.33-4.08-17.5-9.62-24.5-16.62s-12.54-15.17-16.62-24.5C1027.54,562.03,1025.5,551.99,1025.5,541.26z M1090.6,470.21h86.1
		c3.96,0,7.29-1.34,9.98-4.02c2.68-2.68,4.02-5.89,4.02-9.62v-5.95c0-3.96-1.34-7.23-4.02-9.8c-2.69-2.57-6.01-3.85-9.98-3.85
		h-73.85c-3.97,0-7.24,1.29-9.8,3.85c-2.57,2.57-3.85,5.83-3.85,9.8v18.2C1089.2,469.74,1089.66,470.21,1090.6,470.21z"/>
	<path d="M1406.64,373.61h76.3c4.43,0,8.57,0.82,12.42,2.45c3.85,1.63,7.17,3.91,9.97,6.82c2.8,2.92,5.01,6.36,6.65,10.33
		c1.63,3.97,2.45,8.17,2.45,12.6c0,8.87-3.04,16.33-9.1,22.4c-6.07,6.07-13.54,9.1-22.4,9.1h-76.3c-7.93,0-15.46,1.57-22.57,4.72
		c-7.12,3.15-13.36,7.41-18.73,12.78c-5.37,5.37-9.57,11.61-12.6,18.72c-3.04,7.12-4.55,14.76-4.55,22.92
		c0,7.94,1.51,15.46,4.55,22.58c3.03,7.12,7.23,13.36,12.6,18.72c5.37,5.37,11.6,9.57,18.73,12.6c7.11,3.04,14.64,4.55,22.57,4.55
		h76.3c8.86,0,16.33,3.1,22.4,9.28c6.07,6.18,9.1,13.71,9.1,22.57c0,8.87-3.04,16.4-9.1,22.58c-6.07,6.19-13.54,9.28-22.4,9.28
		h-76.3c-16.8,0-32.61-3.21-47.42-9.62c-14.82-6.42-27.77-15.17-38.85-26.25c-11.08-11.08-19.83-24.09-26.25-39.03
		c-6.42-14.93-9.62-30.92-9.62-47.95c0-17.26,3.26-33.3,9.8-48.12c6.53-14.81,15.34-27.7,26.42-38.67
		c11.08-10.96,24.03-19.6,38.85-25.9C1374.39,376.76,1390.07,373.61,1406.64,373.61z"/>
	<path d="M1583.04,373.26c8.86,0,16.39,3.1,22.57,9.28c6.18,6.19,9.28,13.71,9.28,22.58v181.65c0,8.87-3.1,16.4-9.28,22.58
		c-6.18,6.19-13.71,9.28-22.57,9.28c-8.87,0-16.4-3.09-22.58-9.28c-6.19-6.18-9.28-13.7-9.28-22.58V405.11
		c0-8.87,3.09-16.39,9.28-22.58C1566.65,376.35,1574.17,373.26,1583.04,373.26z M1644.64,483.16v-0.7c0.46-0.93,0.99-1.86,1.58-2.8
		c0.58-0.93,2.1-2.68,4.55-5.25c2.45-2.56,6.06-6.3,10.85-11.2c4.78-4.9,11.61-11.9,20.48-21l57.75-59.15
		c6.3-6.3,13.88-9.45,22.75-9.45c8.86,0,16.39,3.04,22.58,9.1c6.18,6.07,9.27,13.54,9.27,22.4c0,8.4-3.04,15.87-9.1,22.4
		l-67.2,68.95l68.25,67.55c6.53,6.54,9.8,14.12,9.8,22.75c0,4.2-0.88,8.23-2.62,12.08c-1.75,3.85-4.08,7.24-7,10.15
		c-2.92,2.92-6.3,5.25-10.15,7c-3.85,1.75-7.88,2.62-12.08,2.62c-8.4,0-15.87-3.03-22.4-9.1l-91-89.95
		c-3.27-3.03-5.66-6.53-7.17-10.5c-1.52-3.96-2.28-7.93-2.28-11.9c0-2.1,0.23-4.31,0.7-6.65
		C1642.66,488.18,1643.47,485.73,1644.64,483.16z"/>
</g>
</svg>
